<svg width="26" height="26" viewBox="0 0 26 26" fill="none" xmlns="http://www.w3.org/2000/svg">
<g clip-path="url(#clip0_1725_2950)">
<path d="M21.804 25.5914C21.4158 25.5904 21.0317 25.5124 20.6738 25.362C20.316 25.2116 19.9915 24.9918 19.7191 24.7153L13.2661 18.3001L6.81317 24.7195C6.39874 25.14 5.86725 25.4258 5.28798 25.5398C4.70871 25.6538 4.10854 25.5906 3.5657 25.3585C3.01748 25.138 2.54849 24.7573 2.21998 24.2661C1.89147 23.775 1.71871 23.1961 1.72425 22.6053V5.65549C1.72425 4.26408 2.27698 2.92966 3.26086 1.94579C4.24473 0.961914 5.57915 0.40918 6.97056 0.40918L19.5617 0.40918C20.2506 0.40918 20.9329 0.544879 21.5694 0.808531C22.2059 1.07218 22.7842 1.45862 23.2714 1.94579C23.7586 2.43295 24.145 3.0113 24.4086 3.64781C24.6723 4.28432 24.808 4.96653 24.808 5.65549V22.6053C24.8139 23.1956 24.6417 23.7741 24.314 24.2652C23.9863 24.7564 23.5182 25.1373 22.9707 25.3585C22.6012 25.5131 22.2045 25.5923 21.804 25.5914ZM6.97056 2.5077C6.13571 2.5077 5.33506 2.83934 4.74474 3.42967C4.15441 4.01999 3.82277 4.82064 3.82277 5.65549V22.6053C3.82239 22.7801 3.87384 22.9511 3.97061 23.0967C4.06739 23.2424 4.20515 23.356 4.36649 23.4234C4.52783 23.4908 4.70552 23.5088 4.87711 23.4752C5.0487 23.4417 5.2065 23.358 5.33056 23.2348V23.2348L12.5316 16.0778C12.7282 15.8824 12.9942 15.7727 13.2714 15.7727C13.5486 15.7727 13.8145 15.8824 14.0111 16.0778L21.2038 23.2327C21.3279 23.3559 21.4856 23.4396 21.6572 23.4731C21.8288 23.5067 22.0065 23.4887 22.1679 23.4213C22.3292 23.3539 22.467 23.2403 22.5637 23.0946C22.6605 22.949 22.712 22.778 22.7116 22.6032V5.65549C22.7116 4.82064 22.3799 4.01999 21.7896 3.42967C21.1993 2.83934 20.3986 2.5077 19.5638 2.5077H6.97056Z" fill="black" fill-opacity="0.46"/>
</g>
<defs>
<clipPath id="clip0_1725_2950">
<rect width="25.1823" height="25.1823" fill="white" transform="translate(0.674805 0.40918)"/>
</clipPath>
</defs>
</svg>
