<svg width="26" height="26" viewBox="0 0 26 26" fill="none" xmlns="http://www.w3.org/2000/svg">
<g clip-path="url(#clip0_1725_2857)">
<path d="M25.8571 17.1975V22.4438C25.8571 23.2787 25.5254 24.0793 24.9351 24.6696C24.3448 25.26 23.5441 25.5916 22.7093 25.5916H17.463C15.991 25.5901 14.5452 25.2015 13.2708 24.4649C11.9964 23.7282 10.9381 22.6694 10.2021 21.3946C10.9931 21.3889 11.7814 21.3017 12.5545 21.1344C13.1433 21.8706 13.8902 22.4648 14.7399 22.8732C15.5896 23.2815 16.5203 23.4933 17.463 23.4931H22.7093C22.9876 23.4931 23.2545 23.3825 23.4512 23.1858C23.648 22.989 23.7585 22.7221 23.7585 22.4438V17.1975C23.7583 16.2545 23.5458 15.3236 23.1367 14.4739C22.7277 13.6242 22.1326 12.8775 21.3956 12.2891C21.5644 11.5161 21.653 10.7278 21.66 9.93664C22.9348 10.6726 23.9937 11.7309 24.7303 13.0054C25.467 14.2798 25.8556 15.7255 25.8571 17.1975ZM19.5374 10.5358C19.6355 9.18394 19.4415 7.82683 18.9685 6.55665C18.4955 5.28647 17.7547 4.13299 16.7963 3.17459C15.8379 2.21618 14.6844 1.47532 13.4142 1.00234C12.144 0.52936 10.7869 0.335343 9.43509 0.433476C7.03953 0.707053 4.82665 1.84702 3.21315 3.6387C1.59965 5.43038 0.696868 7.75015 0.674805 10.1612L0.674805 15.4495C0.674805 18.1062 2.25604 19.296 3.82259 19.296H9.80338C12.2154 19.2753 14.5366 18.3731 16.3296 16.7595C18.1225 15.1459 19.2634 12.9323 19.5374 10.5358V10.5358ZM15.312 4.6599C16.0569 5.40645 16.6328 6.3043 17.0006 7.29269C17.3684 8.28109 17.5197 9.33696 17.4441 10.3889C17.2201 12.2604 16.3198 13.9855 14.9126 15.2395C13.5053 16.4935 11.6883 17.1899 9.80338 17.1975H3.82259C2.84887 17.1975 2.77333 15.8597 2.77333 15.4495V10.1612C2.78208 8.2771 3.47911 6.46117 4.73326 5.05513C5.98741 3.6491 7.71219 2.7499 9.58303 2.52675C9.75721 2.51416 9.93139 2.50787 10.1056 2.50787C11.0722 2.50697 12.0296 2.69656 12.9229 3.06582C13.8163 3.43508 14.6281 3.97675 15.312 4.6599Z" fill="black" fill-opacity="0.46"/>
</g>
<defs>
<clipPath id="clip0_1725_2857">
<rect width="25.1823" height="25.1823" fill="white" transform="translate(0.674805 0.40918)"/>
</clipPath>
</defs>
</svg>
