<svg width="26" height="27" viewBox="0 0 26 27" fill="none" xmlns="http://www.w3.org/2000/svg">
<path fill-rule="evenodd" clip-rule="evenodd" d="M7.80777 2.88311C6.15978 2.88311 5.17676 3.86614 5.17676 5.51413V21.4286C5.17676 23.0766 6.15978 24.0596 7.80777 24.0596H14.5321C14.3173 23.7742 14.1363 23.4621 13.9951 23.1291H7.85055C7.30123 23.1291 6.05911 22.4713 6.15002 21.4286V5.51413C6.15002 4.47135 7.30123 3.8136 7.85055 3.8136H13.7329V9.49274C13.7329 10.4811 13.917 10.4788 14.754 10.4684C14.8473 10.4673 14.9488 10.466 15.0591 10.466H20.6955V17.8767C21.0702 18.1569 21.3991 18.4952 21.6687 18.8781V10.3167C21.6687 10.1859 21.6722 10.0648 21.6754 9.95123V9.95122C21.6918 9.37777 21.7027 8.9967 21.2356 8.52961L15.765 3.41196C15.2342 2.88112 15.0459 2.88151 14.3524 2.88295L14.2351 2.88311H7.80777ZM20.6364 9.49274L14.7062 3.87265V9.49274H20.6364Z" fill="black"/>
<path d="M14.0886 21.4118C14.0886 19.2228 15.8702 17.4412 18.0592 17.4412C20.2483 17.4412 22.0298 19.2228 22.0298 21.4118C22.0298 23.6007 20.2483 25.3824 18.0592 25.3824C15.8702 25.3824 14.0886 23.6007 14.0886 21.4118Z" stroke="black" stroke-width="0.882353"/>
<path d="M17.9881 23.706C18.2415 23.706 18.4469 23.5006 18.4469 23.2472V21.306C18.4469 21.0526 18.2415 20.8472 17.9881 20.8472C17.7347 20.8472 17.5293 21.0526 17.5293 21.306V23.2472C17.5293 23.5006 17.7347 23.706 17.9881 23.706Z" fill="black"/>
<path d="M17.5293 19.9295C17.5293 20.1829 17.7347 20.3883 17.9881 20.3883C18.2415 20.3883 18.4469 20.1829 18.4469 19.9295C18.4469 19.6761 18.2415 19.4707 17.9881 19.4707C17.7347 19.4707 17.5293 19.6761 17.5293 19.9295Z" fill="black"/>
</svg>
