<svg width="26" height="26" viewBox="0 0 26 26" fill="none" xmlns="http://www.w3.org/2000/svg">
<g clip-path="url(#clip0_1648_4472)">
<path d="M0.588379 13.0673C0.78834 12.7146 1.08995 12.6052 1.48904 12.6194C2.18141 12.6444 2.87627 12.6227 3.56947 12.6277C4.04021 12.6311 4.30516 12.85 4.31266 13.2269C4.32099 13.623 4.05438 13.8554 3.55864 13.8604C2.85128 13.8671 2.14391 13.852 1.43655 13.8671C1.05246 13.8754 0.763345 13.7542 0.588379 13.4007V13.0665L0.588379 13.0673Z" fill="black"/>
<path d="M25.9998 13.4015C25.8398 13.7441 25.5682 13.8737 25.1958 13.867C24.4759 13.8545 23.756 13.867 23.0362 13.8611C22.5471 13.857 22.2771 13.6213 22.2838 13.2269C22.2896 12.8508 22.5546 12.6318 23.0253 12.6285C23.731 12.6235 24.4384 12.6444 25.1433 12.6201C25.5315 12.6068 25.814 12.7263 26.0006 13.0681V13.4023L25.9998 13.4015Z" fill="black"/>
<path d="M13.5023 0.529297C13.8064 0.729863 13.9205 1.00815 13.9105 1.37502C13.8914 2.07032 13.9105 2.76728 13.903 3.46258C13.898 3.93642 13.6731 4.20468 13.3006 4.20635C12.9274 4.20802 12.6983 3.94227 12.6924 3.46676C12.6833 2.77063 12.7008 2.07449 12.6841 1.3792C12.6749 1.01567 12.7899 0.735713 13.0865 0.529297H13.5031L13.5023 0.529297Z" fill="black"/>
<path d="M13.3845 6.1603C17.2862 6.18537 20.3823 9.32925 20.3481 13.2303C20.3131 17.1171 17.1762 20.205 13.2995 20.1682C9.45021 20.1314 6.36081 16.9792 6.3958 13.1241C6.4308 9.25069 9.55686 6.13606 13.3845 6.1603ZM13.3445 7.01939V19.2798C15.2274 19.4161 17.4312 18.16 18.5018 16.2672C19.7332 14.0894 19.6774 11.8848 18.3252 9.78721C17.1804 8.01219 15.4857 7.12469 13.3445 7.02023V7.01939Z" fill="black"/>
<path d="M13.9265 24.1065C13.9265 24.495 13.9331 24.8836 13.924 25.2714C13.9148 25.6483 13.6615 25.9249 13.3316 25.94C12.9741 25.9558 12.7109 25.731 12.7009 25.3232C12.68 24.5193 12.6809 23.7137 12.7009 22.9097C12.7109 22.5103 12.9925 22.2529 13.3224 22.2688C13.6582 22.2855 13.919 22.5913 13.9265 22.9824C13.9306 23.1763 13.9265 23.371 13.9265 23.5649C13.9265 23.7454 13.9265 23.9259 13.9265 24.1056V24.1065Z" fill="black"/>
<path d="M22.528 4.61852C22.4072 4.84248 22.3539 5.02299 22.238 5.14333C21.6915 5.71411 21.1333 6.27486 20.5675 6.82642C20.2659 7.12058 19.8968 7.12142 19.6452 6.85985C19.3936 6.59911 19.4086 6.24896 19.711 5.93724C20.2518 5.37983 20.785 4.81323 21.3632 4.29678C21.5257 4.15136 21.8489 4.08869 22.0664 4.13632C22.2405 4.17476 22.3663 4.43801 22.528 4.61768V4.61852Z" fill="black"/>
<path d="M4.68947 22.4865C4.53117 22.352 4.30204 22.2459 4.23206 22.0746C4.16041 21.8991 4.16291 21.5848 4.27538 21.4612C4.87277 20.8051 5.50098 20.175 6.14836 19.5683C6.40247 19.3301 6.72908 19.3794 6.96736 19.6418C7.19065 19.8884 7.20732 20.1993 6.98236 20.4383C6.39247 21.065 5.78009 21.6692 5.16271 22.2693C5.06273 22.3662 4.8961 22.3946 4.68947 22.4865Z" fill="black"/>
<path d="M4.71056 3.98486C4.93301 4.11022 5.12381 4.17373 5.25545 4.29992C5.81451 4.83894 6.36107 5.39134 6.90097 5.94958C7.18924 6.24709 7.19341 6.62983 6.94013 6.87553C6.69517 7.11286 6.33024 7.11454 6.04697 6.83959C5.46958 6.27968 4.88719 5.72227 4.35563 5.12057C4.21649 4.96262 4.18316 4.62918 4.23648 4.40856C4.27647 4.24476 4.53392 4.13362 4.71139 3.98486H4.71056Z" fill="black"/>
<path d="M22.5106 21.8634C22.3807 22.0264 22.2807 22.2671 22.1132 22.3306C21.9249 22.4016 21.5992 22.3974 21.4675 22.2779C20.8218 21.6913 20.2053 21.0703 19.6112 20.4302C19.3796 20.1803 19.4087 19.8511 19.6679 19.6062C19.9261 19.3622 20.2411 19.3547 20.4927 19.5953C21.1042 20.1795 21.6958 20.7845 22.2824 21.3938C22.3798 21.4949 22.4132 21.6578 22.5106 21.8634Z" fill="black"/>
</g>
<defs>
<clipPath id="clip0_1648_4472">
<rect width="25.4118" height="25.4118" fill="white" transform="translate(0.588379 0.529297)"/>
</clipPath>
</defs>
</svg>
