<svg width="26" height="26" viewBox="0 0 26 26" fill="none" xmlns="http://www.w3.org/2000/svg">
<g clip-path="url(#clip0_1725_1895)">
<path d="M18.5124 15.0989C18.5124 15.3771 18.4018 15.644 18.205 15.8408C18.0083 16.0376 17.7414 16.1481 17.4631 16.1481H9.069C8.79072 16.1481 8.52384 16.0376 8.32706 15.8408C8.13029 15.644 8.01974 15.3771 8.01974 15.0989C8.01974 14.8206 8.13029 14.5537 8.32706 14.3569C8.52384 14.1601 8.79072 14.0496 9.069 14.0496H17.4631C17.7414 14.0496 18.0083 14.1601 18.205 14.3569C18.4018 14.5537 18.5124 14.8206 18.5124 15.0989ZM14.3153 18.2466H9.069C8.79072 18.2466 8.52384 18.3572 8.32706 18.554C8.13029 18.7507 8.01974 19.0176 8.01974 19.2959C8.01974 19.5742 8.13029 19.8411 8.32706 20.0378C8.52384 20.2346 8.79072 20.3452 9.069 20.3452H14.3153C14.5936 20.3452 14.8605 20.2346 15.0572 20.0378C15.254 19.8411 15.3646 19.5742 15.3646 19.2959C15.3646 19.0176 15.254 18.7507 15.0572 18.554C14.8605 18.3572 14.5936 18.2466 14.3153 18.2466ZM23.7587 11.4107V20.3452C23.757 21.7361 23.2037 23.0695 22.2202 24.053C21.2367 25.0365 19.9032 25.5898 18.5124 25.5915H8.01974C6.62885 25.5898 5.2954 25.0365 4.31188 24.053C3.32837 23.0695 2.7751 21.7361 2.77344 20.3452V5.65551C2.7751 4.26461 3.32837 2.93116 4.31188 1.94765C5.2954 0.964139 6.62885 0.41087 8.01974 0.409204H12.7572C13.7221 0.40672 14.6779 0.59554 15.5694 0.964745C16.4609 1.33395 17.2704 1.87622 17.951 2.56019L21.6066 6.21791C22.291 6.89809 22.8336 7.70729 23.203 8.59866C23.5724 9.49003 23.7613 10.4458 23.7587 11.4107V11.4107ZM16.4673 4.04384C16.1371 3.72399 15.7664 3.44883 15.3646 3.22542V7.75403C15.3646 8.03231 15.4751 8.2992 15.6719 8.49597C15.8687 8.69275 16.1356 8.80329 16.4138 8.80329H20.9424C20.7189 8.40162 20.4434 8.03119 20.123 7.70157L16.4673 4.04384ZM21.6601 11.4107C21.6601 11.2376 21.6266 11.0718 21.6108 10.9018H16.4138C15.579 10.9018 14.7783 10.5702 14.188 9.97985C13.5977 9.38953 13.266 8.58888 13.266 7.75403V2.55704C13.0961 2.5413 12.9292 2.50773 12.7572 2.50773H8.01974C7.1849 2.50773 6.38425 2.83937 5.79392 3.42969C5.2036 4.02001 4.87196 4.82067 4.87196 5.65551V20.3452C4.87196 21.18 5.2036 21.9807 5.79392 22.571C6.38425 23.1613 7.1849 23.4929 8.01974 23.4929H18.5124C19.3472 23.4929 20.1478 23.1613 20.7382 22.571C21.3285 21.9807 21.6601 21.18 21.6601 20.3452V11.4107Z" fill="black" fill-opacity="0.46"/>
</g>
<defs>
<clipPath id="clip0_1725_1895">
<rect width="25.1823" height="25.1823" fill="white" transform="translate(0.674805 0.40918)"/>
</clipPath>
</defs>
</svg>
