<svg width="26" height="27" viewBox="0 0 26 27" fill="none" xmlns="http://www.w3.org/2000/svg">
<g clip-path="url(#clip0_1648_4495)">
<path d="M12.8635 25.1319H6.23547C4.43421 25.1319 2.97271 23.665 2.97271 21.8692V5.89513C2.97271 4.09388 4.4396 2.63238 6.23547 2.63238H12.9713C13.3758 2.63238 13.6994 2.3088 13.6994 1.90432C13.6994 1.49985 13.3758 1.17627 12.9713 1.17627H6.23547C3.63065 1.17627 1.5166 3.29571 1.5166 5.89513V21.8692C1.5166 24.474 3.63605 26.588 6.23547 26.588H12.8635C13.2679 26.588 13.5915 26.2645 13.5915 25.86C13.5915 25.4555 13.2625 25.1319 12.8635 25.1319Z" fill="black"/>
<path d="M24.8573 13.3699L20.2301 8.74269C19.9443 8.45686 19.4859 8.45686 19.2001 8.74269C18.9142 9.02852 18.9142 9.48692 19.2001 9.77275L22.5869 13.1595H7.81546C7.41098 13.1595 7.0874 13.4831 7.0874 13.8876C7.0874 14.2921 7.41098 14.6157 7.81546 14.6157H22.5869L19.2001 18.0025C18.9142 18.2883 18.9142 18.7467 19.2001 19.0325C19.3403 19.1727 19.529 19.2482 19.7124 19.2482C19.8958 19.2482 20.0845 19.1781 20.2247 19.0325L24.8519 14.4053C25.1431 14.1141 25.1431 13.6503 24.8573 13.3699Z" fill="black"/>
</g>
<defs>
<clipPath id="clip0_1648_4495">
<rect width="25.4118" height="25.4118" fill="white" transform="translate(0.588379 0.646973)"/>
</clipPath>
</defs>
</svg>
