<svg width="26" height="27" viewBox="0 0 26 27" fill="none" xmlns="http://www.w3.org/2000/svg">
<path d="M13.315 21.9141C10.8479 21.9141 8.38084 21.5224 6.04084 20.7388C5.15143 20.4318 4.47378 19.8071 4.17731 18.9918C3.87025 18.1765 3.97613 17.2765 4.46319 16.4718L5.68084 14.4494C5.93495 14.0259 6.1679 13.1788 6.1679 12.6812V9.62118C6.1679 5.68236 9.37613 2.47412 13.315 2.47412C17.2538 2.47412 20.462 5.68236 20.462 9.62118V12.6812C20.462 13.1682 20.695 14.0259 20.9491 14.46L22.1561 16.4718C22.6114 17.2341 22.6961 18.1553 22.3891 18.9918C22.082 19.8282 21.415 20.4635 20.5785 20.7388C18.2491 21.5224 15.782 21.9141 13.315 21.9141ZM13.315 4.06236C10.255 4.06236 7.75613 6.55059 7.75613 9.62118V12.6812C7.75613 13.4541 7.43848 14.5977 7.04672 15.2647L5.82907 17.2871C5.59613 17.6788 5.5326 18.0918 5.67025 18.4412C5.79731 18.8012 6.11495 19.0765 6.54907 19.2247C10.975 20.7071 15.6655 20.7071 20.0914 19.2247C20.4726 19.0977 20.7691 18.8118 20.9067 18.4306C21.0444 18.0494 21.0126 17.6365 20.8008 17.2871L19.5832 15.2647C19.1808 14.5765 18.8738 13.4435 18.8738 12.6706V9.62118C18.8738 6.55059 16.3855 4.06236 13.315 4.06236Z" fill="black"/>
<path d="M13.3153 24.3285C12.2671 24.3285 11.2506 23.905 10.5094 23.1638C9.76826 22.4226 9.34473 21.4061 9.34473 20.3579H10.933C10.933 20.9826 11.1871 21.5967 11.6318 22.0414C12.0765 22.4861 12.6906 22.7403 13.3153 22.7403C14.6283 22.7403 15.6977 21.6709 15.6977 20.3579H17.2859C17.2859 22.5497 15.5071 24.3285 13.3153 24.3285Z" fill="black"/>
</svg>
