<svg width="26" height="26" viewBox="0 0 26 26" fill="none" xmlns="http://www.w3.org/2000/svg">
<path d="M7.99963 12.0001V10.0589C7.99963 6.84263 10.3699 4.23535 13.2937 4.23535C16.2176 4.23535 18.5879 6.84263 18.5879 10.0589V12.0001M4.47021 17.6471C4.47021 15.1515 4.47021 13.9036 5.24552 13.1283C6.02083 12.353 7.26866 12.353 9.76433 12.353H16.8232C19.3188 12.353 20.5666 12.353 21.3419 13.1283C22.1173 13.9036 22.1173 15.1515 22.1173 17.6471C22.1173 20.1428 22.1173 21.3906 21.3419 22.1659C20.5666 22.9412 19.3188 22.9412 16.8232 22.9412H9.76433C7.26866 22.9412 6.02083 22.9412 5.24552 22.1659C4.47021 21.3906 4.47021 20.1428 4.47021 17.6471Z" stroke="black" stroke-width="0.882353" stroke-linecap="round"/>
</svg>
