<svg width="26" height="26" viewBox="0 0 26 26" fill="none" xmlns="http://www.w3.org/2000/svg">
<g clip-path="url(#clip0_1725_1965)">
<path d="M24.9348 9.92496L16.9761 1.96527C15.9911 0.983148 14.6569 0.431641 13.266 0.431641C11.875 0.431641 10.5408 0.983148 9.55576 1.96527L1.59712 9.92496C1.30377 10.2164 1.0712 10.5632 0.912876 10.9452C0.754556 11.3273 0.67364 11.7369 0.674817 12.1504V22.451C0.674817 23.2859 1.00646 24.0865 1.59678 24.6769C2.18711 25.2672 2.98776 25.5988 3.8226 25.5988H22.7093C23.5441 25.5988 24.3448 25.2672 24.9351 24.6769C25.5254 24.0865 25.8571 23.2859 25.8571 22.451V12.1504C25.8583 11.7369 25.7773 11.3273 25.619 10.9452C25.4607 10.5632 25.2281 10.2164 24.9348 9.92496V9.92496ZM16.4137 23.5003H10.1182V19.3725C10.1182 18.5377 10.4498 17.737 11.0401 17.1467C11.6305 16.5564 12.4311 16.2247 13.266 16.2247C14.1008 16.2247 14.9014 16.5564 15.4918 17.1467C16.0821 17.737 16.4137 18.5377 16.4137 19.3725V23.5003ZM23.7586 22.451C23.7586 22.7293 23.648 22.9962 23.4512 23.193C23.2545 23.3898 22.9876 23.5003 22.7093 23.5003H18.5123V19.3725C18.5123 17.9811 17.9595 16.6467 16.9757 15.6628C15.9918 14.6789 14.6574 14.1262 13.266 14.1262C11.8745 14.1262 10.5401 14.6789 9.55625 15.6628C8.57238 16.6467 8.01965 17.9811 8.01965 19.3725V23.5003H3.8226C3.54432 23.5003 3.27744 23.3898 3.08066 23.193C2.88389 22.9962 2.77334 22.7293 2.77334 22.451V12.1504C2.77431 11.8724 2.88476 11.6059 3.08077 11.4086L11.0394 3.45207C11.6309 2.86336 12.4314 2.53286 13.266 2.53286C14.1005 2.53286 14.901 2.86336 15.4925 3.45207L23.4511 11.4118C23.6464 11.6082 23.7568 11.8735 23.7586 12.1504V22.451Z" fill="black" fill-opacity="0.46"/>
</g>
<defs>
<clipPath id="clip0_1725_1965">
<rect width="25.1823" height="25.1823" fill="white" transform="translate(0.674805 0.40918)"/>
</clipPath>
</defs>
</svg>
