<svg width="26" height="26" viewBox="0 0 26 26" fill="none" xmlns="http://www.w3.org/2000/svg">
<path d="M12.8196 3.13801C13.0138 2.74457 13.5748 2.74457 13.769 3.13801L16.443 8.5552C16.52 8.7113 16.6689 8.81954 16.8412 8.84471L22.8217 9.71886C23.2558 9.78231 23.4288 10.3159 23.1145 10.622L18.7879 14.8361C18.663 14.9577 18.606 15.133 18.6355 15.3048L19.6565 21.2577C19.7306 21.6902 19.2766 22.02 18.8883 21.8157L13.5407 19.0035C13.3864 18.9224 13.2021 18.9224 13.0479 19.0035L7.70033 21.8157C7.31194 22.02 6.85794 21.6902 6.93212 21.2577L7.9531 15.3048C7.98257 15.133 7.92557 14.9577 7.8007 14.8361L3.47406 10.622C3.15981 10.3159 3.33281 9.78231 3.76688 9.71886L9.74743 8.84471C9.91967 8.81954 10.0685 8.7113 10.1456 8.5552L12.8196 3.13801Z" stroke="black" stroke-width="1.05882" stroke-linecap="round" stroke-linejoin="round"/>
</svg>
