<svg width="26" height="26" viewBox="0 0 26 26" fill="none" xmlns="http://www.w3.org/2000/svg">
<path fill-rule="evenodd" clip-rule="evenodd" d="M7.80777 2.17706C6.15978 2.17706 5.17676 3.16009 5.17676 4.80808V20.7225C5.17676 22.3706 6.15978 23.3535 7.80777 23.3535H19.0377C20.6858 23.3535 21.6687 22.3706 21.6687 20.7225V9.61068C21.6687 8.81929 21.7952 8.38315 21.2356 7.82355L15.765 2.70591C15.2054 2.1463 15.0265 2.17706 14.2351 2.17706H7.80777ZM6.15002 4.80808C6.15002 3.76529 7.30123 3.10754 7.85055 3.10754H13.7329V8.78668C13.7329 9.88535 13.9604 9.75995 15.0591 9.75995H20.6955V20.7225C20.6364 21.7653 19.5443 22.423 18.9949 22.423H7.85055C7.30123 22.423 6.05911 21.7653 6.15002 20.7225V4.80808ZM20.6364 8.78668L14.7062 3.16659V8.78668H20.6364Z" fill="black"/>
</svg>
